<?xml version="1.0" encoding="UTF-8"?><svg xmlns="http://www.w3.org/2000/svg" xmlns:xlink="http://www.w3.org/1999/xlink" fill-opacity="1" color-rendering="auto" color-interpolation="auto" text-rendering="auto" stroke="black" stroke-linecap="square" width="599" stroke-miterlimit="10" shape-rendering="auto" stroke-opacity="1" fill="black" stroke-dasharray="none" font-weight="normal" stroke-width="1" height="462" font-family="'Dialog'" font-style="normal" stroke-linejoin="miter" font-size="12px" stroke-dashoffset="0" image-rendering="auto">
  <!--Generated by ySVG 2.5-->
  <defs id="genericDefs"/>
  <g>
    <defs id="defs1">
      <linearGradient x1="331" gradientUnits="userSpaceOnUse" x2="331" y1="240" y2="257" id="linearGradient1" spreadMethod="pad">
        <stop stop-opacity="1" stop-color="rgb(223,191,191)" offset="0%"/>
        <stop stop-opacity="1" stop-color="rgb(153,51,51)" offset="100%"/>
      </linearGradient>
      <linearGradient x1="416.5" gradientUnits="userSpaceOnUse" x2="435.5" y1="252" y2="260" id="linearGradient2" spreadMethod="reflect">
        <stop stop-opacity="1" stop-color="black" offset="0%"/>
        <stop stop-opacity="1" stop-color="rgb(183,201,227)" offset="100%"/>
      </linearGradient>
      <linearGradient x1="522.5" gradientUnits="userSpaceOnUse" x2="541.5" y1="252" y2="260" id="linearGradient3" spreadMethod="reflect">
        <stop stop-opacity="1" stop-color="black" offset="0%"/>
        <stop stop-opacity="1" stop-color="rgb(183,201,227)" offset="100%"/>
      </linearGradient>
      <linearGradient x1="650.5" gradientUnits="userSpaceOnUse" x2="669.5" y1="252" y2="260" id="linearGradient4" spreadMethod="reflect">
        <stop stop-opacity="1" stop-color="black" offset="0%"/>
        <stop stop-opacity="1" stop-color="rgb(183,201,227)" offset="100%"/>
      </linearGradient>
      <linearGradient x1="566" gradientUnits="userSpaceOnUse" x2="566" y1="136" y2="153" id="linearGradient5" spreadMethod="pad">
        <stop stop-opacity="1" stop-color="white" offset="0%"/>
        <stop stop-opacity="1" stop-color="white" offset="100%"/>
      </linearGradient>
      <linearGradient x1="416.5" gradientUnits="userSpaceOnUse" x2="416.5" y1="363" y2="380" id="linearGradient6" spreadMethod="pad">
        <stop stop-opacity="1" stop-color="white" offset="0%"/>
        <stop stop-opacity="1" stop-color="white" offset="100%"/>
      </linearGradient>
      <linearGradient x1="631" gradientUnits="userSpaceOnUse" x2="631" y1="354" y2="371" id="linearGradient7" spreadMethod="pad">
        <stop stop-opacity="1" stop-color="white" offset="0%"/>
        <stop stop-opacity="1" stop-color="white" offset="100%"/>
      </linearGradient>
      <linearGradient x1="795" gradientUnits="userSpaceOnUse" x2="795" y1="112" y2="129" id="linearGradient8" spreadMethod="pad">
        <stop stop-opacity="1" stop-color="white" offset="0%"/>
        <stop stop-opacity="1" stop-color="white" offset="100%"/>
      </linearGradient>
      <linearGradient x1="548" gradientUnits="userSpaceOnUse" x2="548" y1="317.5" y2="334.5" id="linearGradient9" spreadMethod="pad">
        <stop stop-opacity="1" stop-color="white" offset="0%"/>
        <stop stop-opacity="1" stop-color="white" offset="100%"/>
      </linearGradient>
      <linearGradient x1="752" gradientUnits="userSpaceOnUse" x2="752" y1="374" y2="391" id="linearGradient10" spreadMethod="pad">
        <stop stop-opacity="1" stop-color="white" offset="0%"/>
        <stop stop-opacity="1" stop-color="white" offset="100%"/>
      </linearGradient>
      <linearGradient x1="870" gradientUnits="userSpaceOnUse" x2="870" y1="176" y2="193" id="linearGradient11" spreadMethod="pad">
        <stop stop-opacity="1" stop-color="white" offset="0%"/>
        <stop stop-opacity="1" stop-color="white" offset="100%"/>
      </linearGradient>
      <linearGradient x1="466.5" gradientUnits="userSpaceOnUse" x2="695.5" y1="-25" y2="15" id="linearGradient12" spreadMethod="reflect">
        <stop stop-opacity="1" stop-color="rgb(232,238,247)" offset="0%"/>
        <stop stop-opacity="1" stop-color="rgb(183,201,227)" offset="100%"/>
      </linearGradient>
      <linearGradient x1="770.5" gradientUnits="userSpaceOnUse" x2="789.5" y1="252" y2="260" id="linearGradient13" spreadMethod="reflect">
        <stop stop-opacity="1" stop-color="black" offset="0%"/>
        <stop stop-opacity="1" stop-color="rgb(183,201,227)" offset="100%"/>
      </linearGradient>
      <linearGradient x1="506" gradientUnits="userSpaceOnUse" x2="506" y1="126" y2="143" id="linearGradient14" spreadMethod="pad">
        <stop stop-opacity="1" stop-color="white" offset="0%"/>
        <stop stop-opacity="1" stop-color="white" offset="100%"/>
      </linearGradient>
      <clipPath clipPathUnits="userSpaceOnUse" id="clipPath1">
        <path d="M0 0 L599 0 L599 462 L0 462 L0 0 Z"/>
      </clipPath>
      <clipPath clipPathUnits="userSpaceOnUse" id="clipPath2">
        <path d="M316 -40 L915 -40 L915 422 L316 422 L316 -40 Z"/>
      </clipPath>
    </defs>
    <g fill="white" text-rendering="geometricPrecision" shape-rendering="geometricPrecision" transform="translate(-316,40)" stroke="white">
      <rect x="316" width="599" height="462" y="-40" clip-path="url(#clipPath2)" stroke="none"/>
    </g>
    <g fill="maroon" text-rendering="geometricPrecision" shape-rendering="geometricPrecision" transform="matrix(1,0,0,1,-316,40)" stroke="maroon">
      <path d="M331 255 L860 255 L860 261 Q860 271 850 271 L341 271 Q331 271 331 261 Z" stroke="none" clip-path="url(#clipPath2)"/>
      <path fill="url(#linearGradient1)" d="M331 251 Q331 241 341 241 L850 241 Q860 241 860 251 L860 256 L331 256 Z" clip-path="url(#clipPath2)" stroke="none"/>
      <path fill="none" d="M333 251 Q333 243 341 243 L850 243 Q858 243 858 251 L858 261 Q858 269 850 269 L341 269 Q333 269 333 261 Z" stroke-width="2" clip-path="url(#clipPath2)" stroke="rgb(217,217,217)"/>
      <path fill="none" d="M333 251 Q333 243 341 243 L850 243 Q858 243 858 251 L858 261 Q858 269 850 269 L341 269 Q333 269 333 261 Z" clip-path="url(#clipPath2)" stroke="black"/>
    </g>
    <g fill="url(#linearGradient2)" text-rendering="geometricPrecision" shape-rendering="geometricPrecision" transform="matrix(1,0,0,1,-316,40)" stroke="url(#linearGradient2)">
      <circle r="4" clip-path="url(#clipPath2)" cx="426" cy="256" stroke="none"/>
    </g>
    <g text-rendering="geometricPrecision" stroke-miterlimit="1.45" shape-rendering="geometricPrecision" transform="matrix(1,0,0,1,-316,40)" stroke-linecap="butt">
      <circle fill="none" r="4" clip-path="url(#clipPath2)" cx="426" cy="256"/>
    </g>
    <g fill="url(#linearGradient3)" text-rendering="geometricPrecision" shape-rendering="geometricPrecision" transform="matrix(1,0,0,1,-316,40)" stroke="url(#linearGradient3)">
      <circle r="4" clip-path="url(#clipPath2)" cx="532" cy="256" stroke="none"/>
    </g>
    <g text-rendering="geometricPrecision" stroke-miterlimit="1.45" shape-rendering="geometricPrecision" transform="matrix(1,0,0,1,-316,40)" stroke-linecap="butt">
      <circle fill="none" r="4" clip-path="url(#clipPath2)" cx="532" cy="256"/>
    </g>
    <g fill="url(#linearGradient4)" text-rendering="geometricPrecision" shape-rendering="geometricPrecision" transform="matrix(1,0,0,1,-316,40)" stroke="url(#linearGradient4)">
      <circle r="4" clip-path="url(#clipPath2)" cx="660" cy="256" stroke="none"/>
    </g>
    <g text-rendering="geometricPrecision" stroke-miterlimit="1.45" shape-rendering="geometricPrecision" transform="matrix(1,0,0,1,-316,40)" stroke-linecap="butt">
      <circle fill="none" r="4" clip-path="url(#clipPath2)" cx="660" cy="256"/>
    </g>
    <g fill="white" text-rendering="geometricPrecision" shape-rendering="geometricPrecision" transform="matrix(1,0,0,1,-316,40)" stroke="white">
      <path d="M566 151 L596 151 L596 164 Q596 167 593 167 L569 167 Q566 167 566 164 Z" stroke="none" clip-path="url(#clipPath2)"/>
      <path fill="url(#linearGradient5)" d="M566 140 Q566 137 569 137 L593 137 Q596 137 596 140 L596 152 L566 152 Z" clip-path="url(#clipPath2)" stroke="none"/>
      <path fill="none" d="M568 140 Q568 139 569 139 L593 139 Q594 139 594 140 L594 164 Q594 165 593 165 L569 165 Q568 165 568 164 Z" stroke-width="2" clip-path="url(#clipPath2)"/>
      <path fill="none" d="M568 140 Q568 139 569 139 L593 139 Q594 139 594 140 L594 164 Q594 165 593 165 L569 165 Q568 165 568 164 Z" clip-path="url(#clipPath2)"/>
    </g>
    <g fill="white" text-rendering="geometricPrecision" shape-rendering="geometricPrecision" transform="matrix(1,0,0,1,-316,40)" stroke="white">
      <path d="M416.5 378 L446.5 378 L446.5 391 Q446.5 394 443.5 394 L419.5 394 Q416.5 394 416.5 391 Z" stroke="none" clip-path="url(#clipPath2)"/>
      <path fill="url(#linearGradient6)" d="M416.5 367 Q416.5 364 419.5 364 L443.5 364 Q446.5 364 446.5 367 L446.5 379 L416.5 379 Z" clip-path="url(#clipPath2)" stroke="none"/>
      <path fill="none" d="M418.5 367 Q418.5 366 419.5 366 L443.5 366 Q444.5 366 444.5 367 L444.5 391 Q444.5 392 443.5 392 L419.5 392 Q418.5 392 418.5 391 Z" stroke-width="2" clip-path="url(#clipPath2)"/>
      <path fill="none" d="M418.5 367 Q418.5 366 419.5 366 L443.5 366 Q444.5 366 444.5 367 L444.5 391 Q444.5 392 443.5 392 L419.5 392 Q418.5 392 418.5 391 Z" clip-path="url(#clipPath2)"/>
    </g>
    <g text-rendering="geometricPrecision" stroke-miterlimit="1.45" shape-rendering="geometricPrecision" font-family="sans-serif" transform="matrix(1,0,0,1,-316,40)" stroke-linecap="butt">
      <text x="416.3242" xml:space="preserve" y="376.4688" clip-path="url(#clipPath2)" stroke="none">2005</text>
      <text x="395.8281" xml:space="preserve" y="390.6016" clip-path="url(#clipPath2)" stroke="none">660-bit RSA</text>
    </g>
    <g fill="white" text-rendering="geometricPrecision" shape-rendering="geometricPrecision" transform="matrix(1,0,0,1,-316,40)" stroke="white">
      <path d="M631 369 L661 369 L661 382 Q661 385 658 385 L634 385 Q631 385 631 382 Z" stroke="none" clip-path="url(#clipPath2)"/>
      <path fill="url(#linearGradient7)" d="M631 358 Q631 355 634 355 L658 355 Q661 355 661 358 L661 370 L631 370 Z" clip-path="url(#clipPath2)" stroke="none"/>
      <path fill="none" d="M633 358 Q633 357 634 357 L658 357 Q659 357 659 358 L659 382 Q659 383 658 383 L634 383 Q633 383 633 382 Z" stroke-width="2" clip-path="url(#clipPath2)"/>
      <path fill="none" d="M633 358 Q633 357 634 357 L658 357 Q659 357 659 358 L659 382 Q659 383 658 383 L634 383 Q633 383 633 382 Z" clip-path="url(#clipPath2)"/>
    </g>
    <g text-rendering="geometricPrecision" stroke-miterlimit="1.45" shape-rendering="geometricPrecision" font-family="sans-serif" transform="matrix(1,0,0,1,-316,40)" stroke-linecap="butt">
      <text x="630.8242" xml:space="preserve" y="367.4688" clip-path="url(#clipPath2)" stroke="none">2013</text>
      <text x="606.5342" xml:space="preserve" y="381.6016" clip-path="url(#clipPath2)" stroke="none">2048-bit RSA</text>
    </g>
    <g fill="white" text-rendering="geometricPrecision" shape-rendering="geometricPrecision" transform="matrix(1,0,0,1,-316,40)" stroke="white">
      <path d="M795 127 L825 127 L825 140 Q825 143 822 143 L798 143 Q795 143 795 140 Z" stroke="none" clip-path="url(#clipPath2)"/>
      <path fill="url(#linearGradient8)" d="M795 116 Q795 113 798 113 L822 113 Q825 113 825 116 L825 128 L795 128 Z" clip-path="url(#clipPath2)" stroke="none"/>
      <path fill="none" d="M797 116 Q797 115 798 115 L822 115 Q823 115 823 116 L823 140 Q823 141 822 141 L798 141 Q797 141 797 140 Z" stroke-width="2" clip-path="url(#clipPath2)"/>
      <path fill="none" d="M797 116 Q797 115 798 115 L822 115 Q823 115 823 116 L823 140 Q823 141 822 141 L798 141 Q797 141 797 140 Z" clip-path="url(#clipPath2)"/>
    </g>
    <g text-rendering="geometricPrecision" stroke-miterlimit="1.45" shape-rendering="geometricPrecision" font-family="sans-serif" transform="matrix(1,0,0,1,-316,40)" stroke-linecap="butt">
      <text x="738.7061" xml:space="preserve" y="125.4688" clip-path="url(#clipPath2)" stroke="none">Elliptic curve cryptography</text>
      <text x="800.8242" xml:space="preserve" y="139.6016" clip-path="url(#clipPath2)" stroke="none">2014</text>
    </g>
    <g fill="white" text-rendering="geometricPrecision" shape-rendering="geometricPrecision" transform="matrix(1,0,0,1,-316,40)" stroke="white">
      <path d="M548 332.5 L578 332.5 L578 345.5 Q578 348.5 575 348.5 L551 348.5 Q548 348.5 548 345.5 Z" stroke="none" clip-path="url(#clipPath2)"/>
      <path fill="url(#linearGradient9)" d="M548 321.5 Q548 318.5 551 318.5 L575 318.5 Q578 318.5 578 321.5 L578 333.5 L548 333.5 Z" clip-path="url(#clipPath2)" stroke="none"/>
      <path fill="none" d="M550 321.5 Q550 320.5 551 320.5 L575 320.5 Q576 320.5 576 321.5 L576 345.5 Q576 346.5 575 346.5 L551 346.5 Q550 346.5 550 345.5 Z" stroke-width="2" clip-path="url(#clipPath2)"/>
      <path fill="none" d="M550 321.5 Q550 320.5 551 320.5 L575 320.5 Q576 320.5 576 321.5 L576 345.5 Q576 346.5 575 346.5 L551 346.5 Q550 346.5 550 345.5 Z" clip-path="url(#clipPath2)"/>
    </g>
    <g fill="white" text-rendering="geometricPrecision" shape-rendering="geometricPrecision" transform="matrix(1,0,0,1,-316,40)" stroke="white">
      <path d="M752 389 L782 389 L782 402 Q782 405 779 405 L755 405 Q752 405 752 402 Z" stroke="none" clip-path="url(#clipPath2)"/>
      <path fill="url(#linearGradient10)" d="M752 378 Q752 375 755 375 L779 375 Q782 375 782 378 L782 390 L752 390 Z" clip-path="url(#clipPath2)" stroke="none"/>
      <path fill="none" d="M754 378 Q754 377 755 377 L779 377 Q780 377 780 378 L780 402 Q780 403 779 403 L755 403 Q754 403 754 402 Z" stroke-width="2" clip-path="url(#clipPath2)"/>
      <path fill="none" d="M754 378 Q754 377 755 377 L779 377 Q780 377 780 378 L780 402 Q780 403 779 403 L755 403 Q754 403 754 402 Z" clip-path="url(#clipPath2)"/>
    </g>
    <g text-rendering="geometricPrecision" stroke-miterlimit="1.45" shape-rendering="geometricPrecision" font-family="sans-serif" transform="matrix(1,0,0,1,-316,40)" stroke-linecap="butt">
      <text x="756.8242" xml:space="preserve" y="387.4688" clip-path="url(#clipPath2)" stroke="none">2014</text>
      <text x="721.4629" xml:space="preserve" y="401.6016" clip-path="url(#clipPath2)" stroke="none">AES insets of RSA</text>
    </g>
    <g fill="white" text-rendering="geometricPrecision" shape-rendering="geometricPrecision" transform="matrix(1,0,0,1,-316,40)" stroke="white">
      <path d="M870 191 L900 191 L900 204 Q900 207 897 207 L873 207 Q870 207 870 204 Z" stroke="none" clip-path="url(#clipPath2)"/>
      <path fill="url(#linearGradient11)" d="M870 180 Q870 177 873 177 L897 177 Q900 177 900 180 L900 192 L870 192 Z" clip-path="url(#clipPath2)" stroke="none"/>
      <path fill="none" d="M872 180 Q872 179 873 179 L897 179 Q898 179 898 180 L898 204 Q898 205 897 205 L873 205 Q872 205 872 204 Z" stroke-width="2" clip-path="url(#clipPath2)"/>
      <path fill="none" d="M872 180 Q872 179 873 179 L897 179 Q898 179 898 180 L898 204 Q898 205 897 205 L873 205 Q872 205 872 204 Z" clip-path="url(#clipPath2)"/>
    </g>
    <g fill="url(#linearGradient12)" text-rendering="geometricPrecision" shape-rendering="geometricPrecision" transform="matrix(1,0,0,1,-316,40)" stroke="url(#linearGradient12)">
      <rect x="466.5" y="-25" clip-path="url(#clipPath2)" width="229" rx="20" ry="20" height="40" stroke="none"/>
    </g>
    <g text-rendering="geometricPrecision" stroke-miterlimit="1.45" shape-rendering="geometricPrecision" transform="matrix(1,0,0,1,-316,40)" stroke-linecap="butt">
      <rect x="466.5" y="-25" clip-path="url(#clipPath2)" fill="none" width="229" rx="20" ry="20" height="40"/>
      <text x="475.0479" xml:space="preserve" y="-0.4648" clip-path="url(#clipPath2)" font-family="sans-serif" stroke="none">Ransomwares encryption algorithms</text>
    </g>
    <g fill="url(#linearGradient13)" text-rendering="geometricPrecision" shape-rendering="geometricPrecision" transform="matrix(1,0,0,1,-316,40)" stroke="url(#linearGradient13)">
      <circle r="4" clip-path="url(#clipPath2)" cx="780" cy="256" stroke="none"/>
    </g>
    <g text-rendering="geometricPrecision" stroke-miterlimit="1.45" shape-rendering="geometricPrecision" transform="matrix(1,0,0,1,-316,40)" stroke-linecap="butt">
      <circle fill="none" r="4" clip-path="url(#clipPath2)" cx="780" cy="256"/>
    </g>
    <g fill="white" text-rendering="geometricPrecision" shape-rendering="geometricPrecision" transform="matrix(1,0,0,1,-316,40)" stroke="white">
      <path d="M506 141 L536 141 L536 154 Q536 157 533 157 L509 157 Q506 157 506 154 Z" stroke="none" clip-path="url(#clipPath2)"/>
      <path fill="url(#linearGradient14)" d="M506 130 Q506 127 509 127 L533 127 Q536 127 536 130 L536 142 L506 142 Z" clip-path="url(#clipPath2)" stroke="none"/>
      <path fill="none" d="M508 130 Q508 129 509 129 L533 129 Q534 129 534 130 L534 154 Q534 155 533 155 L509 155 Q508 155 508 154 Z" stroke-width="2" clip-path="url(#clipPath2)"/>
      <path fill="none" d="M508 130 Q508 129 509 129 L533 129 Q534 129 534 130 L534 154 Q534 155 533 155 L509 155 Q508 155 508 154 Z" clip-path="url(#clipPath2)"/>
    </g>
    <g text-rendering="geometricPrecision" stroke-miterlimit="1.45" shape-rendering="geometricPrecision" font-family="sans-serif" transform="matrix(1,0,0,1,-316,40)" stroke-linecap="butt">
      <text x="481.5342" xml:space="preserve" y="144.4688" clip-path="url(#clipPath2)" stroke="none">1024-bit RSA</text>
      <text x="505.8242" xml:space="preserve" y="158.6016" clip-path="url(#clipPath2)" stroke="none">2008</text>
    </g>
    <g text-rendering="geometricPrecision" stroke-miterlimit="1.45" shape-rendering="geometricPrecision" transform="matrix(1,0,0,1,-316,40)" stroke-linecap="butt">
      <path fill="none" d="M430.5 350.5 L426.1912 260.0144" clip-path="url(#clipPath2)"/>
    </g>
    <g text-rendering="geometricPrecision" stroke-miterlimit="1.45" shape-rendering="geometricPrecision" transform="matrix(1,0,0,1,-316,40)" stroke-linecap="butt">
      <path fill="none" d="M659.5112 259.98 L647.8439 354.985" clip-path="url(#clipPath2)"/>
      <path fill="none" d="M781.1353 252.1401 L810 154" clip-path="url(#clipPath2)"/>
      <path fill="none" d="M779.5081 259.9923 L767 361.5" clip-path="url(#clipPath2)"/>
      <path fill="none" d="M531.3672 252.0571 L518.3577 171" clip-path="url(#clipPath2)"/>
    </g>
  </g>
</svg>
