<?xml version="1.0" encoding="UTF-8"?><svg xmlns="http://www.w3.org/2000/svg" xmlns:xlink="http://www.w3.org/1999/xlink" fill-opacity="1" color-rendering="auto" color-interpolation="auto" text-rendering="auto" stroke="black" stroke-linecap="square" width="690" stroke-miterlimit="10" shape-rendering="auto" stroke-opacity="1" fill="black" stroke-dasharray="none" font-weight="normal" stroke-width="1" height="469" font-family="'Dialog'" font-style="normal" stroke-linejoin="miter" font-size="12px" stroke-dashoffset="0" image-rendering="auto">
  <!--Generated by ySVG 2.5-->
  <defs id="genericDefs"/>
  <g>
    <defs id="defs1">
      <linearGradient x1="245" gradientUnits="userSpaceOnUse" x2="245" y1="240" y2="257" id="linearGradient1" spreadMethod="pad">
        <stop stop-opacity="1" stop-color="rgb(223,191,191)" offset="0%"/>
        <stop stop-opacity="1" stop-color="rgb(153,51,51)" offset="100%"/>
      </linearGradient>
      <linearGradient x1="290.5" gradientUnits="userSpaceOnUse" x2="309.5" y1="252" y2="260" id="linearGradient2" spreadMethod="reflect">
        <stop stop-opacity="1" stop-color="black" offset="0%"/>
        <stop stop-opacity="1" stop-color="rgb(183,201,227)" offset="100%"/>
      </linearGradient>
      <linearGradient x1="410.5" gradientUnits="userSpaceOnUse" x2="429.5" y1="252" y2="260" id="linearGradient3" spreadMethod="reflect">
        <stop stop-opacity="1" stop-color="black" offset="0%"/>
        <stop stop-opacity="1" stop-color="rgb(183,201,227)" offset="100%"/>
      </linearGradient>
      <linearGradient x1="548.5" gradientUnits="userSpaceOnUse" x2="567.5" y1="252" y2="260" id="linearGradient4" spreadMethod="reflect">
        <stop stop-opacity="1" stop-color="black" offset="0%"/>
        <stop stop-opacity="1" stop-color="rgb(183,201,227)" offset="100%"/>
      </linearGradient>
      <linearGradient x1="650.5" gradientUnits="userSpaceOnUse" x2="669.5" y1="252" y2="260" id="linearGradient5" spreadMethod="reflect">
        <stop stop-opacity="1" stop-color="black" offset="0%"/>
        <stop stop-opacity="1" stop-color="rgb(183,201,227)" offset="100%"/>
      </linearGradient>
      <linearGradient x1="518" gradientUnits="userSpaceOnUse" x2="518" y1="354" y2="371" id="linearGradient6" spreadMethod="pad">
        <stop stop-opacity="1" stop-color="white" offset="0%"/>
        <stop stop-opacity="1" stop-color="white" offset="100%"/>
      </linearGradient>
      <linearGradient x1="566" gradientUnits="userSpaceOnUse" x2="566" y1="136" y2="153" id="linearGradient7" spreadMethod="pad">
        <stop stop-opacity="1" stop-color="white" offset="0%"/>
        <stop stop-opacity="1" stop-color="white" offset="100%"/>
      </linearGradient>
      <linearGradient x1="271" gradientUnits="userSpaceOnUse" x2="271" y1="354" y2="371" id="linearGradient8" spreadMethod="pad">
        <stop stop-opacity="1" stop-color="white" offset="0%"/>
        <stop stop-opacity="1" stop-color="white" offset="100%"/>
      </linearGradient>
      <linearGradient x1="663" gradientUnits="userSpaceOnUse" x2="663" y1="344" y2="361" id="linearGradient9" spreadMethod="pad">
        <stop stop-opacity="1" stop-color="white" offset="0%"/>
        <stop stop-opacity="1" stop-color="white" offset="100%"/>
      </linearGradient>
      <linearGradient x1="795" gradientUnits="userSpaceOnUse" x2="795" y1="112" y2="129" id="linearGradient10" spreadMethod="pad">
        <stop stop-opacity="1" stop-color="white" offset="0%"/>
        <stop stop-opacity="1" stop-color="white" offset="100%"/>
      </linearGradient>
      <linearGradient x1="548" gradientUnits="userSpaceOnUse" x2="548" y1="317.5" y2="334.5" id="linearGradient11" spreadMethod="pad">
        <stop stop-opacity="1" stop-color="white" offset="0%"/>
        <stop stop-opacity="1" stop-color="white" offset="100%"/>
      </linearGradient>
      <linearGradient x1="752" gradientUnits="userSpaceOnUse" x2="752" y1="374" y2="391" id="linearGradient12" spreadMethod="pad">
        <stop stop-opacity="1" stop-color="white" offset="0%"/>
        <stop stop-opacity="1" stop-color="white" offset="100%"/>
      </linearGradient>
      <linearGradient x1="870" gradientUnits="userSpaceOnUse" x2="870" y1="176" y2="193" id="linearGradient13" spreadMethod="pad">
        <stop stop-opacity="1" stop-color="white" offset="0%"/>
        <stop stop-opacity="1" stop-color="white" offset="100%"/>
      </linearGradient>
      <linearGradient x1="440.5" gradientUnits="userSpaceOnUse" x2="639.5" y1="-25" y2="15" id="linearGradient14" spreadMethod="reflect">
        <stop stop-opacity="1" stop-color="rgb(232,238,247)" offset="0%"/>
        <stop stop-opacity="1" stop-color="rgb(183,201,227)" offset="100%"/>
      </linearGradient>
      <linearGradient x1="770.5" gradientUnits="userSpaceOnUse" x2="789.5" y1="252" y2="260" id="linearGradient15" spreadMethod="reflect">
        <stop stop-opacity="1" stop-color="black" offset="0%"/>
        <stop stop-opacity="1" stop-color="rgb(183,201,227)" offset="100%"/>
      </linearGradient>
      <linearGradient x1="387.6424" gradientUnits="userSpaceOnUse" x2="387.6424" y1="117.5" y2="134.5" id="linearGradient16" spreadMethod="pad">
        <stop stop-opacity="1" stop-color="white" offset="0%"/>
        <stop stop-opacity="1" stop-color="white" offset="100%"/>
      </linearGradient>
      <clipPath clipPathUnits="userSpaceOnUse" id="clipPath1">
        <path d="M0 0 L690 0 L690 469 L0 469 L0 0 Z"/>
      </clipPath>
      <clipPath clipPathUnits="userSpaceOnUse" id="clipPath2">
        <path d="M225 -40 L915 -40 L915 429 L225 429 L225 -40 Z"/>
      </clipPath>
    </defs>
    <g fill="white" text-rendering="geometricPrecision" shape-rendering="geometricPrecision" transform="translate(-225,40)" stroke="white">
      <rect x="225" width="690" height="469" y="-40" clip-path="url(#clipPath2)" stroke="none"/>
    </g>
    <g fill="maroon" text-rendering="geometricPrecision" shape-rendering="geometricPrecision" transform="matrix(1,0,0,1,-225,40)" stroke="maroon">
      <path d="M245 255 L835 255 L835 261 Q835 271 825 271 L255 271 Q245 271 245 261 Z" stroke="none" clip-path="url(#clipPath2)"/>
      <path fill="url(#linearGradient1)" d="M245 251 Q245 241 255 241 L825 241 Q835 241 835 251 L835 256 L245 256 Z" clip-path="url(#clipPath2)" stroke="none"/>
      <path fill="none" d="M247 251 Q247 243 255 243 L825 243 Q833 243 833 251 L833 261 Q833 269 825 269 L255 269 Q247 269 247 261 Z" stroke-width="2" clip-path="url(#clipPath2)" stroke="rgb(217,217,217)"/>
      <path fill="none" d="M247 251 Q247 243 255 243 L825 243 Q833 243 833 251 L833 261 Q833 269 825 269 L255 269 Q247 269 247 261 Z" clip-path="url(#clipPath2)" stroke="black"/>
    </g>
    <g fill="url(#linearGradient2)" text-rendering="geometricPrecision" shape-rendering="geometricPrecision" transform="matrix(1,0,0,1,-225,40)" stroke="url(#linearGradient2)">
      <circle r="4" clip-path="url(#clipPath2)" cx="300" cy="256" stroke="none"/>
    </g>
    <g text-rendering="geometricPrecision" stroke-miterlimit="1.45" shape-rendering="geometricPrecision" transform="matrix(1,0,0,1,-225,40)" stroke-linecap="butt">
      <circle fill="none" r="4" clip-path="url(#clipPath2)" cx="300" cy="256"/>
    </g>
    <g fill="url(#linearGradient3)" text-rendering="geometricPrecision" shape-rendering="geometricPrecision" transform="matrix(1,0,0,1,-225,40)" stroke="url(#linearGradient3)">
      <circle r="4" clip-path="url(#clipPath2)" cx="420" cy="256" stroke="none"/>
    </g>
    <g text-rendering="geometricPrecision" stroke-miterlimit="1.45" shape-rendering="geometricPrecision" transform="matrix(1,0,0,1,-225,40)" stroke-linecap="butt">
      <circle fill="none" r="4" clip-path="url(#clipPath2)" cx="420" cy="256"/>
    </g>
    <g fill="url(#linearGradient4)" text-rendering="geometricPrecision" shape-rendering="geometricPrecision" transform="matrix(1,0,0,1,-225,40)" stroke="url(#linearGradient4)">
      <circle r="4" clip-path="url(#clipPath2)" cx="558" cy="256" stroke="none"/>
    </g>
    <g text-rendering="geometricPrecision" stroke-miterlimit="1.45" shape-rendering="geometricPrecision" transform="matrix(1,0,0,1,-225,40)" stroke-linecap="butt">
      <circle fill="none" r="4" clip-path="url(#clipPath2)" cx="558" cy="256"/>
    </g>
    <g fill="url(#linearGradient5)" text-rendering="geometricPrecision" shape-rendering="geometricPrecision" transform="matrix(1,0,0,1,-225,40)" stroke="url(#linearGradient5)">
      <circle r="4" clip-path="url(#clipPath2)" cx="660" cy="256" stroke="none"/>
    </g>
    <g text-rendering="geometricPrecision" stroke-miterlimit="1.45" shape-rendering="geometricPrecision" transform="matrix(1,0,0,1,-225,40)" stroke-linecap="butt">
      <circle fill="none" r="4" clip-path="url(#clipPath2)" cx="660" cy="256"/>
    </g>
    <g fill="white" text-rendering="geometricPrecision" shape-rendering="geometricPrecision" transform="matrix(1,0,0,1,-225,40)" stroke="white">
      <path d="M518 369 L548 369 L548 382 Q548 385 545 385 L521 385 Q518 385 518 382 Z" stroke="none" clip-path="url(#clipPath2)"/>
      <path fill="url(#linearGradient6)" d="M518 358 Q518 355 521 355 L545 355 Q548 355 548 358 L548 370 L518 370 Z" clip-path="url(#clipPath2)" stroke="none"/>
      <path fill="none" d="M520 358 Q520 357 521 357 L545 357 Q546 357 546 358 L546 382 Q546 383 545 383 L521 383 Q520 383 520 382 Z" stroke-width="2" clip-path="url(#clipPath2)"/>
      <path fill="none" d="M520 358 Q520 357 521 357 L545 357 Q546 357 546 358 L546 382 Q546 383 545 383 L521 383 Q520 383 520 382 Z" clip-path="url(#clipPath2)"/>
    </g>
    <g text-rendering="geometricPrecision" stroke-miterlimit="1.45" shape-rendering="geometricPrecision" font-family="sans-serif" transform="matrix(1,0,0,1,-225,40)" stroke-linecap="butt">
      <text x="517.8242" xml:space="preserve" y="360.4023" clip-path="url(#clipPath2)" stroke="none">2010</text>
      <text x="507.2246" xml:space="preserve" y="374.5352" clip-path="url(#clipPath2)" stroke="none">Premium</text>
      <text x="508.0273" xml:space="preserve" y="388.668" clip-path="url(#clipPath2)" stroke="none">rate sms</text>
    </g>
    <g fill="white" text-rendering="geometricPrecision" shape-rendering="geometricPrecision" transform="matrix(1,0,0,1,-225,40)" stroke="white">
      <path d="M566 151 L596 151 L596 164 Q596 167 593 167 L569 167 Q566 167 566 164 Z" stroke="none" clip-path="url(#clipPath2)"/>
      <path fill="url(#linearGradient7)" d="M566 140 Q566 137 569 137 L593 137 Q596 137 596 140 L596 152 L566 152 Z" clip-path="url(#clipPath2)" stroke="none"/>
      <path fill="none" d="M568 140 Q568 139 569 139 L593 139 Q594 139 594 140 L594 164 Q594 165 593 165 L569 165 Q568 165 568 164 Z" stroke-width="2" clip-path="url(#clipPath2)"/>
      <path fill="none" d="M568 140 Q568 139 569 139 L593 139 Q594 139 594 140 L594 164 Q594 165 593 165 L569 165 Q568 165 568 164 Z" clip-path="url(#clipPath2)"/>
    </g>
    <g text-rendering="geometricPrecision" stroke-miterlimit="1.45" shape-rendering="geometricPrecision" font-family="sans-serif" transform="matrix(1,0,0,1,-225,40)" stroke-linecap="butt">
      <text x="528.8926" xml:space="preserve" y="142.4023" clip-path="url(#clipPath2)" stroke="none">Call to a premium</text>
      <text x="558.377" xml:space="preserve" y="156.5352" clip-path="url(#clipPath2)" stroke="none">number</text>
      <text x="565.8242" xml:space="preserve" y="170.668" clip-path="url(#clipPath2)" stroke="none">2010</text>
    </g>
    <g fill="white" text-rendering="geometricPrecision" shape-rendering="geometricPrecision" transform="matrix(1,0,0,1,-225,40)" stroke="white">
      <path d="M271 369 L301 369 L301 382 Q301 385 298 385 L274 385 Q271 385 271 382 Z" stroke="none" clip-path="url(#clipPath2)"/>
      <path fill="url(#linearGradient8)" d="M271 358 Q271 355 274 355 L298 355 Q301 355 301 358 L301 370 L271 370 Z" clip-path="url(#clipPath2)" stroke="none"/>
      <path fill="none" d="M273 358 Q273 357 274 357 L298 357 Q299 357 299 358 L299 382 Q299 383 298 383 L274 383 Q273 383 273 382 Z" stroke-width="2" clip-path="url(#clipPath2)"/>
      <path fill="none" d="M273 358 Q273 357 274 357 L298 357 Q299 357 299 358 L299 382 Q299 383 298 383 L274 383 Q273 383 273 382 Z" clip-path="url(#clipPath2)"/>
    </g>
    <g text-rendering="geometricPrecision" stroke-miterlimit="1.45" shape-rendering="geometricPrecision" font-family="sans-serif" transform="matrix(1,0,0,1,-225,40)" stroke-linecap="butt">
      <text x="270.8242" xml:space="preserve" y="367.4688" clip-path="url(#clipPath2)" stroke="none">1989</text>
      <text x="242.5088" xml:space="preserve" y="381.6016" clip-path="url(#clipPath2)" stroke="none">Post office box</text>
    </g>
    <g fill="white" text-rendering="geometricPrecision" shape-rendering="geometricPrecision" transform="matrix(1,0,0,1,-225,40)" stroke="white">
      <path d="M663 359 L693 359 L693 372 Q693 375 690 375 L666 375 Q663 375 663 372 Z" stroke="none" clip-path="url(#clipPath2)"/>
      <path fill="url(#linearGradient9)" d="M663 348 Q663 345 666 345 L690 345 Q693 345 693 348 L693 360 L663 360 Z" clip-path="url(#clipPath2)" stroke="none"/>
      <path fill="none" d="M665 348 Q665 347 666 347 L690 347 Q691 347 691 348 L691 372 Q691 373 690 373 L666 373 Q665 373 665 372 Z" stroke-width="2" clip-path="url(#clipPath2)"/>
      <path fill="none" d="M665 348 Q665 347 666 347 L690 347 Q691 347 691 348 L691 372 Q691 373 690 373 L666 373 Q665 373 665 372 Z" clip-path="url(#clipPath2)"/>
    </g>
    <g text-rendering="geometricPrecision" stroke-miterlimit="1.45" shape-rendering="geometricPrecision" font-family="sans-serif" transform="matrix(1,0,0,1,-225,40)" stroke-linecap="butt">
      <text x="662.8242" xml:space="preserve" y="357.4688" clip-path="url(#clipPath2)" stroke="none">2012</text>
      <text x="651.0146" xml:space="preserve" y="371.6016" clip-path="url(#clipPath2)" stroke="none">Vouchers</text>
    </g>
    <g fill="white" text-rendering="geometricPrecision" shape-rendering="geometricPrecision" transform="matrix(1,0,0,1,-225,40)" stroke="white">
      <path d="M795 127 L825 127 L825 140 Q825 143 822 143 L798 143 Q795 143 795 140 Z" stroke="none" clip-path="url(#clipPath2)"/>
      <path fill="url(#linearGradient10)" d="M795 116 Q795 113 798 113 L822 113 Q825 113 825 116 L825 128 L795 128 Z" clip-path="url(#clipPath2)" stroke="none"/>
      <path fill="none" d="M797 116 Q797 115 798 115 L822 115 Q823 115 823 116 L823 140 Q823 141 822 141 L798 141 Q797 141 797 140 Z" stroke-width="2" clip-path="url(#clipPath2)"/>
      <path fill="none" d="M797 116 Q797 115 798 115 L822 115 Q823 115 823 116 L823 140 Q823 141 822 141 L798 141 Q797 141 797 140 Z" clip-path="url(#clipPath2)"/>
    </g>
    <g text-rendering="geometricPrecision" stroke-miterlimit="1.45" shape-rendering="geometricPrecision" font-family="sans-serif" transform="matrix(1,0,0,1,-225,40)" stroke-linecap="butt">
      <text x="796.3535" xml:space="preserve" y="125.4688" clip-path="url(#clipPath2)" stroke="none">Bitcoin</text>
      <text x="800.8242" xml:space="preserve" y="139.6016" clip-path="url(#clipPath2)" stroke="none">2013</text>
    </g>
    <g fill="white" text-rendering="geometricPrecision" shape-rendering="geometricPrecision" transform="matrix(1,0,0,1,-225,40)" stroke="white">
      <path d="M548 332.5 L578 332.5 L578 345.5 Q578 348.5 575 348.5 L551 348.5 Q548 348.5 548 345.5 Z" stroke="none" clip-path="url(#clipPath2)"/>
      <path fill="url(#linearGradient11)" d="M548 321.5 Q548 318.5 551 318.5 L575 318.5 Q578 318.5 578 321.5 L578 333.5 L548 333.5 Z" clip-path="url(#clipPath2)" stroke="none"/>
      <path fill="none" d="M550 321.5 Q550 320.5 551 320.5 L575 320.5 Q576 320.5 576 321.5 L576 345.5 Q576 346.5 575 346.5 L551 346.5 Q550 346.5 550 345.5 Z" stroke-width="2" clip-path="url(#clipPath2)"/>
      <path fill="none" d="M550 321.5 Q550 320.5 551 320.5 L575 320.5 Q576 320.5 576 321.5 L576 345.5 Q576 346.5 575 346.5 L551 346.5 Q550 346.5 550 345.5 Z" clip-path="url(#clipPath2)"/>
    </g>
    <g fill="white" text-rendering="geometricPrecision" shape-rendering="geometricPrecision" transform="matrix(1,0,0,1,-225,40)" stroke="white">
      <path d="M752 389 L782 389 L782 402 Q782 405 779 405 L755 405 Q752 405 752 402 Z" stroke="none" clip-path="url(#clipPath2)"/>
      <path fill="url(#linearGradient12)" d="M752 378 Q752 375 755 375 L779 375 Q782 375 782 378 L782 390 L752 390 Z" clip-path="url(#clipPath2)" stroke="none"/>
      <path fill="none" d="M754 378 Q754 377 755 377 L779 377 Q780 377 780 378 L780 402 Q780 403 779 403 L755 403 Q754 403 754 402 Z" stroke-width="2" clip-path="url(#clipPath2)"/>
      <path fill="none" d="M754 378 Q754 377 755 377 L779 377 Q780 377 780 378 L780 402 Q780 403 779 403 L755 403 Q754 403 754 402 Z" clip-path="url(#clipPath2)"/>
    </g>
    <g text-rendering="geometricPrecision" stroke-miterlimit="1.45" shape-rendering="geometricPrecision" font-family="sans-serif" transform="matrix(1,0,0,1,-225,40)" stroke-linecap="butt">
      <text x="756.8242" xml:space="preserve" y="380.4023" clip-path="url(#clipPath2)" stroke="none">2013</text>
      <text x="714.0742" xml:space="preserve" y="394.5352" clip-path="url(#clipPath2)" stroke="none">Payment to a virtual</text>
      <text x="740.8574" xml:space="preserve" y="408.668" clip-path="url(#clipPath2)" stroke="none">credit card</text>
    </g>
    <g fill="white" text-rendering="geometricPrecision" shape-rendering="geometricPrecision" transform="matrix(1,0,0,1,-225,40)" stroke="white">
      <path d="M870 191 L900 191 L900 204 Q900 207 897 207 L873 207 Q870 207 870 204 Z" stroke="none" clip-path="url(#clipPath2)"/>
      <path fill="url(#linearGradient13)" d="M870 180 Q870 177 873 177 L897 177 Q900 177 900 180 L900 192 L870 192 Z" clip-path="url(#clipPath2)" stroke="none"/>
      <path fill="none" d="M872 180 Q872 179 873 179 L897 179 Q898 179 898 180 L898 204 Q898 205 897 205 L873 205 Q872 205 872 204 Z" stroke-width="2" clip-path="url(#clipPath2)"/>
      <path fill="none" d="M872 180 Q872 179 873 179 L897 179 Q898 179 898 180 L898 204 Q898 205 897 205 L873 205 Q872 205 872 204 Z" clip-path="url(#clipPath2)"/>
    </g>
    <g fill="url(#linearGradient14)" text-rendering="geometricPrecision" shape-rendering="geometricPrecision" transform="matrix(1,0,0,1,-225,40)" stroke="url(#linearGradient14)">
      <rect x="440.5" y="-25" clip-path="url(#clipPath2)" width="199" rx="20" ry="20" height="40" stroke="none"/>
    </g>
    <g text-rendering="geometricPrecision" stroke-miterlimit="1.45" shape-rendering="geometricPrecision" transform="matrix(1,0,0,1,-225,40)" stroke-linecap="butt">
      <rect x="440.5" y="-25" clip-path="url(#clipPath2)" fill="none" width="199" rx="20" ry="20" height="40"/>
      <text x="445.6641" xml:space="preserve" y="-0.4648" clip-path="url(#clipPath2)" font-family="sans-serif" stroke="none">Ransomwares payment methods</text>
    </g>
    <g fill="url(#linearGradient15)" text-rendering="geometricPrecision" shape-rendering="geometricPrecision" transform="matrix(1,0,0,1,-225,40)" stroke="url(#linearGradient15)">
      <circle r="4" clip-path="url(#clipPath2)" cx="780" cy="256" stroke="none"/>
    </g>
    <g text-rendering="geometricPrecision" stroke-miterlimit="1.45" shape-rendering="geometricPrecision" transform="matrix(1,0,0,1,-225,40)" stroke-linecap="butt">
      <circle fill="none" r="4" clip-path="url(#clipPath2)" cx="780" cy="256"/>
    </g>
    <g fill="white" text-rendering="geometricPrecision" shape-rendering="geometricPrecision" transform="matrix(1,0,0,1,-225,40)" stroke="white">
      <path d="M387.6424 132.5 L417.6424 132.5 L417.6424 145.5 Q417.6424 148.5 414.6424 148.5 L390.6424 148.5 Q387.6424 148.5 387.6424 145.5 Z" stroke="none" clip-path="url(#clipPath2)"/>
      <path fill="url(#linearGradient16)" d="M387.6424 121.5 Q387.6424 118.5 390.6424 118.5 L414.6424 118.5 Q417.6424 118.5 417.6424 121.5 L417.6424 133.5 L387.6424 133.5 Z" clip-path="url(#clipPath2)" stroke="none"/>
      <path fill="none" d="M389.6424 121.5 Q389.6424 120.5 390.6424 120.5 L414.6424 120.5 Q415.6424 120.5 415.6424 121.5 L415.6424 145.5 Q415.6424 146.5 414.6424 146.5 L390.6424 146.5 Q389.6424 146.5 389.6424 145.5 Z" stroke-width="2" clip-path="url(#clipPath2)"/>
      <path fill="none" d="M389.6424 121.5 Q389.6424 120.5 390.6424 120.5 L414.6424 120.5 Q415.6424 120.5 415.6424 121.5 L415.6424 145.5 Q415.6424 146.5 414.6424 146.5 L390.6424 146.5 Q389.6424 146.5 389.6424 145.5 Z" clip-path="url(#clipPath2)"/>
    </g>
    <g text-rendering="geometricPrecision" stroke-miterlimit="1.45" shape-rendering="geometricPrecision" font-family="sans-serif" transform="matrix(1,0,0,1,-225,40)" stroke-linecap="butt">
      <text x="342.909" xml:space="preserve" y="128.9023" clip-path="url(#clipPath2)" stroke="none">Purchase items from</text>
      <text x="345.4724" xml:space="preserve" y="143.0352" clip-path="url(#clipPath2)" stroke="none">an online pharmacy</text>
      <text x="387.4666" xml:space="preserve" y="157.168" clip-path="url(#clipPath2)" stroke="none">2006</text>
    </g>
    <g text-rendering="geometricPrecision" stroke-miterlimit="1.45" shape-rendering="geometricPrecision" transform="matrix(1,0,0,1,-225,40)" stroke-linecap="butt">
      <path fill="none" d="M535 344.5 L557.0005 259.8459" clip-path="url(#clipPath2)"/>
    </g>
    <g text-rendering="geometricPrecision" stroke-miterlimit="1.45" shape-rendering="geometricPrecision" transform="matrix(1,0,0,1,-225,40)" stroke-linecap="butt">
      <path fill="none" d="M559.0856 252.1787 L580.0139 178.5148" clip-path="url(#clipPath2)"/>
      <path fill="none" d="M285 341.5 L299.3042 259.9661" clip-path="url(#clipPath2)"/>
      <path fill="none" d="M660.6812 259.9355 L675.4039 345.0001" clip-path="url(#clipPath2)"/>
      <path fill="none" d="M781.1353 252.1401 L810 154" clip-path="url(#clipPath2)"/>
      <path fill="none" d="M779.5081 259.9923 L767 361.5" clip-path="url(#clipPath2)"/>
      <path fill="none" d="M419.1699 252.1194 L400 162.5" clip-path="url(#clipPath2)"/>
    </g>
  </g>
</svg>
